# xmcd
#
# Track frame offsets:
#	150
#	11797
#	22112
#	39111
#	50259
#	68448
#	79770
#	88474
#	102378
#	119766
#	135224
#	146462
#	157339
#	185181
#
# Disc length: 2483 seconds
# Revision: 0
# Processed by: cddbd v1.5.2PL0 Copyright (c) Steve Scherf et al.
# Submitted via: dBpowerAMP V12.0
#
DISCID=c209b10e
DTITLE=The Phipps Family - Faith Love and Tragedy
DYEAR=1900
DGENRE=
TTITLE0=Just Another Broken Heart
TTITLE1=Away Over In The Promised Land
TTITLE2=The Great Titanic
TTITLE3=Foresaken Love
TTITLE4=The Red Jacket Mine Explosion
TTITLE5=I Will Never Marry
TTITLE6=Gonna Row My Boat
TTITLE7=The Old Pine Tree
TTITLE8=The Merry Golden Tree
TTITLE9=The Unclouded Day
TTITLE10=Charles Guteau
TTITLE11=My Home Among The Hills
TTITLE12=Pearl Bryan
TTITLE13=DATA
EXTD=
EXTT0=
EXTT1=
EXTT2=
EXTT3=
EXTT4=
EXTT5=
EXTT6=
EXTT7=
EXTT8=
EXTT9=
EXTT10=
EXTT11=
EXTT12=
EXTT13=
PLAYORDER=
